<svg width="40" height="40" viewBox="0 0 40 40" fill="none" xmlns="http://www.w3.org/2000/svg">
<path d="M33.3333 30.0003H29.9999V15.417L19.9999 21.667L9.99992 15.417V30.0003H6.66659V10.0003H8.66658L19.9999 17.0837L31.3333 10.0003H33.3333M33.3333 6.66699H6.66659C4.81659 6.66699 3.33325 8.15033 3.33325 10.0003V30.0003C3.33325 30.8844 3.68444 31.7322 4.30956 32.3573C4.93468 32.9825 5.78253 33.3337 6.66659 33.3337H33.3333C34.2173 33.3337 35.0652 32.9825 35.6903 32.3573C36.3154 31.7322 36.6666 30.8844 36.6666 30.0003V10.0003C36.6666 9.11627 36.3154 8.26842 35.6903 7.6433C35.0652 7.01818 34.2173 6.66699 33.3333 6.66699Z" fill="white"/>
</svg>
