<svg width="32" height="32" viewBox="0 0 32 32" fill="none" xmlns="http://www.w3.org/2000/svg">
<circle cx="16" cy="16" r="16" fill="#2E2A26"/>
<path d="M15.439 21.7878C15.4236 21.8032 15.4083 21.8108 15.393 21.8108C15.347 21.8108 15.324 21.7418 15.324 21.6038C15.324 21.5118 15.347 21.4198 15.393 21.3278C15.4543 21.2205 15.5616 21.1592 15.715 21.1438C16.1443 21.1132 16.5506 20.9675 16.934 20.7068C17.3173 20.4462 17.6546 20.1395 17.946 19.7868C18.2373 19.4188 18.4443 19.0738 18.567 18.7518L20.683 13.4618C20.9743 12.7412 21.304 12.0435 21.672 11.3688C22.0553 10.6942 22.5383 10.1422 23.121 9.71285C23.719 9.28351 24.4703 9.06885 25.375 9.06885C25.7276 9.06885 26.0803 9.11485 26.433 9.20685C26.801 9.28351 27.1076 9.41385 27.353 9.59785C27.5983 9.78185 27.721 10.0425 27.721 10.3798C27.721 10.4258 27.721 10.4718 27.721 10.5178C27.721 10.5638 27.7133 10.6098 27.698 10.6558C27.652 10.9012 27.514 11.1465 27.284 11.3918C27.0693 11.6372 26.9006 11.9438 26.778 12.3118C26.7626 12.4192 26.6936 12.4728 26.571 12.4728C26.4636 12.4728 26.4406 12.4038 26.502 12.2658C26.6246 12.0818 26.7166 11.8672 26.778 11.6218C26.8546 11.3612 26.893 11.1005 26.893 10.8398C26.893 10.4412 26.801 10.0885 26.617 9.78185C26.433 9.47518 26.1186 9.32185 25.674 9.32185C25.2753 9.32185 24.869 9.43685 24.455 9.66685C24.041 9.89685 23.6806 10.2955 23.374 10.8628L19.119 18.7058C18.7203 19.4418 18.3523 19.9708 18.015 20.2928C17.693 20.5995 17.4246 20.7912 17.21 20.8678H22.753C23.489 20.8678 24.1713 20.8448 24.8 20.7988C25.4286 20.7528 25.812 20.6378 25.95 20.4538C26.1033 20.2392 26.18 20.0092 26.18 19.7638C26.18 19.3805 25.973 19.0968 25.559 18.9128C25.513 18.8822 25.49 18.8515 25.49 18.8208C25.49 18.7902 25.5053 18.7595 25.536 18.7288C25.582 18.6982 25.6356 18.6982 25.697 18.7288C25.835 18.7902 25.996 18.9282 26.18 19.1428C26.3793 19.3422 26.5633 19.5645 26.732 19.8098C26.9006 20.0398 27.008 20.2238 27.054 20.3618C27.1 20.4998 27.123 20.6378 27.123 20.7758C27.123 21.4045 26.5786 21.7188 25.49 21.7188C24.6313 21.7188 23.7113 21.6882 22.73 21.6268C21.7486 21.5655 20.775 21.4965 19.809 21.4198C18.8583 21.3432 17.9613 21.2895 17.118 21.2588C16.796 21.2282 16.474 21.2742 16.152 21.3968C15.8453 21.5042 15.6076 21.6345 15.439 21.7878Z" fill="#D8B383"/>
<path d="M8.83 22.294C8.01733 22.294 7.23533 22.1713 6.484 21.926C5.748 21.696 5.15 21.305 4.69 20.753C4.23 20.201 4 19.4573 4 18.522C4 17.5253 4.19167 16.5517 4.575 15.601C4.95833 14.6503 5.472 13.7687 6.116 12.956C6.76 12.128 7.48067 11.415 8.278 10.817C8.98333 10.2803 9.796 9.84333 10.716 9.506C11.6513 9.16867 12.579 9 13.499 9C13.8823 9 14.2427 9.03067 14.58 9.092C14.9173 9.138 15.2623 9.24533 15.615 9.414C15.9217 9.552 16.167 9.72833 16.351 9.943C16.535 10.1423 16.627 10.3723 16.627 10.633C16.627 10.6637 16.627 10.702 16.627 10.748C16.627 10.794 16.6193 10.8323 16.604 10.863C16.5427 11.1083 16.397 11.392 16.167 11.714C15.9523 12.0207 15.7837 12.3427 15.661 12.68C15.6457 12.7413 15.5613 12.795 15.408 12.841C15.2547 12.8717 15.1933 12.8563 15.224 12.795C15.3467 12.5957 15.4387 12.3503 15.5 12.059C15.5767 11.7677 15.615 11.4763 15.615 11.185C15.615 10.9703 15.592 10.771 15.546 10.587C15.5153 10.3877 15.454 10.219 15.362 10.081C15.2087 9.805 14.971 9.61333 14.649 9.506C14.327 9.39867 13.982 9.345 13.614 9.345C13.2613 9.345 12.9087 9.38333 12.556 9.46C12.2033 9.53667 11.8967 9.621 11.636 9.713C10.7467 10.035 9.89567 10.541 9.083 11.231C8.36233 11.8597 7.71833 12.588 7.151 13.416C6.599 14.244 6.162 15.095 5.84 15.969C5.518 16.843 5.357 17.6787 5.357 18.476C5.357 19.2887 5.53333 19.9327 5.886 20.408C6.23867 20.8833 6.69867 21.2207 7.266 21.42C7.83333 21.6193 8.44667 21.719 9.106 21.719C9.68867 21.719 10.2637 21.6577 10.831 21.535C11.4137 21.4123 11.9427 21.259 12.418 21.075C13.2307 20.7683 13.959 20.3927 14.603 19.948C15.2623 19.5033 15.8757 18.9283 16.443 18.223C16.5197 18.1463 16.5733 18.108 16.604 18.108C16.65 18.108 16.673 18.1387 16.673 18.2C16.673 18.3227 16.6117 18.4683 16.489 18.637C15.9677 19.3423 15.3773 19.9327 14.718 20.408C14.0587 20.8833 13.3533 21.2743 12.602 21.581C12.096 21.7803 11.5057 21.949 10.831 22.087C10.1717 22.225 9.50467 22.294 8.83 22.294Z" fill="#D8B383"/>
</svg>
